<svg width="512" height="512" viewBox="0 0 512 512" fill="none" xmlns="http://www.w3.org/2000/svg">
<g clip-path="url(#clip0)">
<rect width="512" height="512" rx="100" fill="url(#paint0_linear)"/>
<rect x="-43.5" y="-43.5" width="119" height="599" stroke="white" stroke-opacity="0.9"/>
<rect x="196.5" y="-43.5" width="119" height="599" stroke="white" stroke-opacity="0.9"/>
<rect x="-43.5" y="75.5" width="119" height="599" transform="rotate(-90 -43.5 75.5)" stroke="white" stroke-opacity="0.9"/>
<rect x="-43.5" y="315.5" width="119" height="599" transform="rotate(-90 -43.5 315.5)" stroke="white" stroke-opacity="0.9"/>
<rect x="436.5" y="-43.5" width="119" height="599" stroke="white" stroke-opacity="0.9"/>
<rect x="-43.5" y="555.5" width="119" height="599" transform="rotate(-90 -43.5 555.5)" stroke="white" stroke-opacity="0.9"/>
<path d="M276.116 76L403.083 393.408C407.959 405.577 413.359 414.028 419.28 418.761C425.55 423.155 431.123 425.521 436 425.859V436C425.55 435.324 413.184 434.986 398.903 434.986C384.97 434.648 370.862 434.479 356.581 434.479C340.557 434.479 325.405 434.648 311.123 434.986C296.842 434.986 285.521 435.324 277.161 436V425.859C294.926 425.183 306.073 422.31 310.601 417.239C315.477 411.831 314.433 400.507 307.466 383.268L218.642 147.493L228.046 134.31L148.627 335.099C138.874 360.113 133.997 379.042 133.997 391.887C134.345 404.732 138.7 413.521 147.06 418.254C155.419 422.648 166.566 425.183 180.499 425.859V436C169.004 435.324 158.032 434.986 147.582 434.986C137.132 434.648 126.508 434.479 115.71 434.479C108.046 434.479 100.731 434.648 93.7649 434.986C87.1466 434.986 81.225 435.324 76 436V425.859C83.3149 424.507 90.8041 419.944 98.4673 412.169C106.131 404.394 113.62 391.211 120.935 372.62L240.064 76C245.637 76.338 251.559 76.507 257.829 76.507C264.447 76.507 270.543 76.338 276.116 76ZM312.691 289.972V300.113H156.987L162.212 289.972H312.691Z" fill="white"/>
<mask id="mask0" mask-type="alpha" maskUnits="userSpaceOnUse" x="76" y="76" width="360" height="360">
<path d="M276.116 76L403.083 393.408C407.959 405.577 413.359 414.028 419.28 418.761C425.55 423.155 431.123 425.521 436 425.859V436C425.55 435.324 413.184 434.986 398.903 434.986C384.97 434.648 370.862 434.479 356.581 434.479C340.557 434.479 325.405 434.648 311.123 434.986C296.842 434.986 285.521 435.324 277.161 436V425.859C294.926 425.183 306.073 422.31 310.601 417.239C315.477 411.831 314.433 400.507 307.466 383.268L218.642 147.493L228.046 134.31L148.627 335.099C138.874 360.113 133.997 379.042 133.997 391.887C134.345 404.732 138.7 413.521 147.06 418.254C155.419 422.648 166.566 425.183 180.499 425.859V436C169.004 435.324 158.032 434.986 147.582 434.986C137.132 434.648 126.508 434.479 115.71 434.479C108.046 434.479 100.731 434.648 93.7649 434.986C87.1466 434.986 81.225 435.324 76 436V425.859C83.3149 424.507 90.8041 419.944 98.4673 412.169C106.131 404.394 113.62 391.211 120.935 372.62L240.064 76C245.637 76.338 251.559 76.507 257.829 76.507C264.447 76.507 270.543 76.338 276.116 76ZM312.691 289.972V300.113H156.987L162.212 289.972H312.691Z" fill="white"/>
</mask>
<g mask="url(#mask0)">
<rect x="256.187" y="76" width="180.187" height="360" fill="#464646" fill-opacity="0.2"/>
</g>
</g>
<defs>
<linearGradient id="paint0_linear" x1="-1.90735e-06" y1="512" x2="512" y2="-1.90735e-06" gradientUnits="userSpaceOnUse">
<stop stop-color="#7460A7"/>
<stop offset="1" stop-color="#0F96EF"/>
</linearGradient>
<clipPath id="clip0">
<rect width="512" height="512" fill="white"/>
</clipPath>
</defs>
</svg>
