<svg width="2500" height="2500" viewBox="0 0 2500 2500" fill="none" xmlns="http://www.w3.org/2000/svg">
<circle cx="1250" cy="1250" r="1250" fill="#87D4FF"/>
<mask id="mask0" mask-type="alpha" maskUnits="userSpaceOnUse" x="0" y="0" width="2500" height="2500">
<circle cx="1250" cy="1250" r="1250" fill="#C4C4C4"/>
</mask>
<g mask="url(#mask0)">
<path d="M195.5 2050.54C158.527 2149.95 159 2337.54 159 2337.54L1275 2536.5L2341 2337.54C2341 2337.54 2319.11 2136.09 2248.5 2014.54C2148 1841.54 1580 1549.54 1580 1549.54L960 1575.04L329 1871.04C329 1871.04 230.34 1956.86 195.5 2050.54Z" fill="#343839"/>
<path d="M957.996 1604.54V1546.54L1579.5 1461.04V1546.54C1579.5 1546.54 1663.53 1609.09 1680.5 1672.54C1702.97 1756.57 1565.73 1989.99 1480 2044.54C1394.27 2099.09 1299.58 2122.73 1200 2102.54C1084.5 2079.12 957.996 1909.54 957.996 1909.54C957.996 1909.54 898.528 1792.55 899 1727.04C899.464 1662.61 957.996 1604.54 957.996 1604.54Z" fill="#E8C0B8"/>
<path d="M801.5 1048.04C801.5 1048.04 850.782 1323.54 871 1411.54C891.218 1499.54 1015 1646.54 1015 1646.54C1015 1646.54 1115 1773.59 1243.5 1757.54C1372 1741.49 1461 1646.54 1461 1646.54C1461 1646.54 1590.5 1468.04 1602.5 1411.54C1624.59 1307.54 1642.51 1191.1 1644 1048.04C1646.36 822.187 1561 478.04 1561 478.04L1169.5 440.54L777.5 478.04C787 660.04 801.5 1048.04 801.5 1048.04Z" fill="#EFD0CB"/>
<path d="M1686.5 890.54C1649.94 895.722 1639 967.54 1639 967.54L1632 1227.54C1632 1227.54 1661.17 1214.06 1670.5 1193.54C1705.5 1116.54 1716 1090.04 1727 1056.04C1737.78 1022.73 1730.5 967.54 1730.5 967.54C1730.5 967.54 1725.79 884.969 1686.5 890.54Z" fill="#EFD0CB"/>
<path d="M769.247 943.027C806.162 943.637 825.927 1013.54 825.927 1013.54L865.107 1270.67C865.107 1270.67 840.799 1234.74 829 1215.54C784.724 1143.47 780.631 1143.41 765.501 1111.04C750.679 1079.33 741 1017.04 741 1017.04C741 1017.04 729.57 942.37 769.247 943.027Z" fill="#EFD0CB"/>
<path d="M811.5 917.04C796.848 1006.53 821 1149.04 821 1149.04L704.5 561.539C704.5 561.539 740.488 369.862 841.5 286.039C947.59 198.003 1041.26 157.787 1179 163.539C1315.18 169.227 1396.31 235.929 1503.5 292.039C1578 331.039 1684 561.539 1684 561.539L1638.83 1107.91C1638.08 1118.17 1637.5 1124.04 1637.5 1124.04L1638.83 1107.91C1642.63 1055.96 1650.69 891.473 1609 805.54C1593.04 772.649 1571 753.04 1571 753.04C1571 753.04 1585.14 623.355 1541.5 561.539C1503.85 508.209 1456 476.873 1400 472.539C1316 466.039 1084.5 460.539 1019.5 479.539C939.391 502.956 860.29 557.666 833 636.539C811.393 698.989 841.5 805.54 841.5 805.54C841.5 805.54 818.786 872.54 811.5 917.04Z" fill="#CEC6B3"/>
<path fill-rule="evenodd" clip-rule="evenodd" d="M2339.99 2500H1251V172.85C1228.61 167.882 1204.79 164.617 1179 163.539C1041.26 157.787 947.59 198.003 841.5 286.039C740.488 369.862 704.5 561.539 704.5 561.539L780.636 945.487C777.043 943.972 773.245 943.093 769.247 943.027C729.569 942.37 741 1017.04 741 1017.04C741 1017.04 750.679 1079.33 765.501 1111.04C774.525 1130.35 779.623 1138.16 791.663 1156.62C799.809 1169.1 811.132 1186.46 829 1215.54C830.357 1217.75 831.879 1220.18 833.511 1222.75C847.153 1295.58 861.973 1372.25 871 1411.54C881.861 1458.81 922.607 1523.11 957.996 1572.5V1575.98L329 1871.04C329 1871.04 230.34 1956.86 195.5 2050.54C158.526 2149.95 159 2515.5 159 2515.5H2341C2341 2515.5 2340.68 2509.96 2339.99 2500Z" fill="#454545" fill-opacity="0.05"/>
</g>
</svg>
