<svg width="301" height="301" viewBox="0 0 301 301" fill="none" xmlns="http://www.w3.org/2000/svg">
<rect width="300" height="300" transform="translate(0.456055 0.832031)" fill="#3D3D3D"/>
<path d="M101.563 188.416C97.3385 188.416 94.2665 187.36 92.3465 185.248C90.4905 183.072 89.5625 180.32 89.5625 176.992C89.5625 174.24 90.2025 172 91.4825 170.272C92.7625 168.544 94.3945 167.136 96.3785 166.048C98.4265 164.896 100.571 163.936 102.811 163.168C105.115 162.336 107.259 161.568 109.243 160.864C111.29 160.096 112.955 159.232 114.235 158.272C115.579 157.312 116.25 156.096 116.25 154.624V148.096C116.25 145.792 115.866 143.968 115.098 142.624C114.394 141.216 113.403 140.224 112.123 139.648C110.906 139.072 109.435 138.784 107.707 138.784C106.235 138.784 104.667 139.008 103.003 139.456C101.339 139.84 100.027 140.64 99.0665 141.856C100.475 142.24 101.627 143.008 102.523 144.16C103.483 145.248 103.963 146.624 103.963 148.288C103.963 150.08 103.355 151.488 102.139 152.512C100.987 153.536 99.5145 154.048 97.7225 154.048C95.7385 154.048 94.2665 153.44 93.3065 152.224C92.3465 150.944 91.8665 149.472 91.8665 147.808C91.8665 146.08 92.2825 144.672 93.1145 143.584C94.0105 142.496 95.1625 141.472 96.5705 140.512C98.1065 139.488 100.058 138.624 102.426 137.92C104.858 137.216 107.547 136.864 110.491 136.864C113.243 136.864 115.611 137.184 117.595 137.824C119.643 138.4 121.338 139.36 122.682 140.704C124.282 142.176 125.339 144.032 125.851 146.272C126.363 148.448 126.618 151.104 126.618 154.24V180.736C126.618 182.272 126.811 183.392 127.195 184.096C127.579 184.8 128.282 185.152 129.306 185.152C130.074 185.152 130.779 184.96 131.419 184.576C132.059 184.192 132.699 183.744 133.339 183.232L134.299 184.864C132.955 185.952 131.579 186.816 130.171 187.456C128.827 188.096 127.099 188.416 124.987 188.416C121.467 188.416 119.131 187.584 117.979 185.92C116.891 184.256 116.315 182.336 116.25 180.16C114.395 183.296 112.187 185.472 109.626 186.688C107.13 187.84 104.443 188.416 101.563 188.416ZM106.842 183.808C108.506 183.808 110.139 183.36 111.739 182.464C113.339 181.504 114.843 179.904 116.25 177.664V158.56C115.354 159.904 113.979 160.992 112.123 161.824C110.331 162.656 108.475 163.584 106.555 164.608C104.699 165.568 103.099 166.88 101.755 168.544C100.411 170.208 99.7385 172.512 99.7385 175.456C99.7385 178.336 100.411 180.448 101.755 181.792C103.099 183.136 104.794 183.808 106.842 183.808Z" fill="white"/>
<path d="M154.015 112.576V147.52C155.615 143.552 157.855 140.8 160.735 139.264C163.679 137.664 166.783 136.864 170.047 136.864C172.607 136.864 174.687 137.216 176.287 137.92C177.951 138.56 179.327 139.456 180.415 140.608C181.567 141.824 182.399 143.392 182.911 145.312C183.423 147.232 183.679 149.824 183.679 153.088V178.816C183.679 181.504 184.191 183.328 185.215 184.288C186.303 185.248 188.095 185.728 190.591 185.728V187.744C189.439 187.68 187.711 187.616 185.407 187.552C183.103 187.424 180.863 187.36 178.687 187.36C176.447 187.36 174.239 187.424 172.063 187.552C169.951 187.616 168.383 187.68 167.359 187.744V185.728C169.535 185.728 171.071 185.248 171.967 184.288C172.863 183.328 173.311 181.504 173.311 178.816V150.4C173.311 148.544 173.151 146.88 172.831 145.408C172.511 143.872 171.807 142.656 170.719 141.76C169.695 140.8 168.159 140.32 166.111 140.32C162.655 140.32 159.775 141.76 157.471 144.64C155.167 147.456 154.015 151.104 154.015 155.584V178.816C154.015 181.504 154.463 183.328 155.359 184.288C156.255 185.248 157.791 185.728 159.967 185.728V187.744C158.879 187.68 157.279 187.616 155.167 187.552C153.119 187.424 151.007 187.36 148.831 187.36C146.591 187.36 144.287 187.424 141.919 187.552C139.615 187.616 137.887 187.68 136.735 187.744V185.728C139.231 185.728 140.991 185.248 142.015 184.288C143.103 183.328 143.647 181.504 143.647 178.816V124.096C143.647 121.216 143.135 119.104 142.111 117.76C141.151 116.352 139.359 115.648 136.735 115.648V113.632C138.783 113.824 140.767 113.92 142.687 113.92C144.799 113.92 146.815 113.824 148.735 113.632C150.655 113.376 152.415 113.024 154.015 112.576Z" fill="white"/>
<path d="M204.533 175.936C206.453 175.936 208.053 176.576 209.333 177.856C210.677 179.072 211.349 180.64 211.349 182.56C211.349 184.416 210.677 185.984 209.333 187.264C208.053 188.48 206.453 189.088 204.533 189.088C202.613 189.088 200.981 188.48 199.637 187.264C198.357 185.984 197.717 184.416 197.717 182.56C197.717 180.64 198.357 179.072 199.637 177.856C200.981 176.576 202.613 175.936 204.533 175.936Z" fill="white"/>
</svg>
